<?xml version="1.0" standalone="no"?>
<!DOCTYPE svg PUBLIC "-//W3C//DTD SVG 20010904//EN"
 "http://www.w3.org/TR/2001/REC-SVG-20010904/DTD/svg10.dtd">
<svg version="1.0" xmlns="http://www.w3.org/2000/svg"
 width="207.000000pt" height="156.000000pt" viewBox="0 0 207.000000 156.000000"
 preserveAspectRatio="xMidYMid meet">
<metadata>
Created by potrace 1.10, written by Peter Selinger 2001-2011
</metadata>
 <defs>
  <filter id="holo-glow" x="-50%" y="-50%" width="200%" height="200%">
    <feDropShadow dx="0" dy="0" stdDeviation="1.5" flood-color="#00f7ff" flood-opacity="0.6"/>
    <feDropShadow dx="0" dy="0" stdDeviation="4" flood-color="#00f7ff" flood-opacity="0.4"/>
    <feDropShadow dx="0" dy="0" stdDeviation="8" flood-color="#00f7ff" flood-opacity="0.2"/>
  </filter>
</defs>
<g transform="translate(0.000000,156.000000) scale(0.100000,-0.100000)"
fill="none" stroke="#00f7ff" stroke-width="8" filter="url(#holo-glow)">\
<path d="M1073 1553 c-13 -2 -23 -9 -23 -14 0 -5 -9 -9 -19 -9 -11 0 -22 -6
-24 -12 -4 -10 -8 -9 -16 2 -6 9 -11 10 -11 3 0 -7 -25 -13 -62 -16 -83 -7
-156 -21 -169 -34 -17 -17 4 -23 47 -12 21 6 54 12 71 14 18 2 46 6 63 10 19
4 30 3 30 -4 0 -6 7 -11 15 -11 8 0 15 5 15 10 0 6 9 10 20 10 11 0 20 4 20
10 0 5 7 7 15 4 8 -4 17 1 21 10 3 9 12 16 20 16 20 0 -16 -69 -36 -70 -8 0
-22 -5 -30 -10 -13 -9 -13 -11 0 -20 12 -8 11 -10 -7 -10 -13 0 -23 -4 -23
-10 0 -5 -6 -10 -14 -10 -21 0 -28 -16 -21 -41 5 -16 9 -18 15 -8 7 10 11 10
24 0 8 -7 21 -11 28 -8 7 2 24 0 37 -5 13 -5 53 -9 88 -9 34 -1 65 -5 69 -10
3 -5 18 -9 34 -9 37 0 60 -9 60 -24 0 -7 12 -19 28 -27 15 -8 39 -26 54 -41
14 -16 30 -28 35 -28 13 -1 73 -58 73 -71 0 -6 7 -17 15 -25 8 -9 18 -27 22
-42 3 -15 12 -31 18 -37 7 -5 15 -22 19 -37 3 -15 17 -38 31 -52 14 -14 25
-32 25 -41 0 -8 9 -15 20 -15 11 0 20 -5 20 -12 0 -9 3 -9 13 1 10 10 8 16
-10 28 -13 9 -23 21 -23 27 0 6 -9 18 -20 26 -12 8 -20 26 -20 42 0 15 -4 28
-10 28 -5 0 -10 6 -10 13 0 8 -11 24 -25 37 -14 13 -25 29 -25 36 0 16 -115
134 -129 134 -6 0 -11 5 -11 10 0 6 -7 10 -15 10 -8 0 -15 7 -15 15 0 9 -8 19
-17 22 -10 4 -25 15 -34 24 -17 20 -92 36 -208 45 -65 6 -101 19 -101 38 0 12
59 6 63 -6 4 -10 6 -10 6 0 1 14 71 17 71 2 0 -5 7 -10 15 -10 18 0 20 26 3
33 -7 3 -3 6 10 6 12 1 22 -3 22 -9 0 -5 9 -10 21 -10 11 0 17 -4 14 -10 -4
-6 9 -10 31 -10 41 0 104 -19 104 -32 0 -4 7 -8 15 -8 8 0 15 5 15 10 0 6 -5
10 -10 10 -6 0 -20 9 -32 20 l-22 20 38 0 c22 0 35 -4 31 -10 -3 -5 2 -10 12
-10 10 0 25 -9 33 -20 8 -11 22 -20 32 -20 10 0 18 -6 18 -13 0 -8 11 -24 25
-37 14 -13 25 -32 25 -42 0 -10 7 -18 15 -18 17 0 65 -43 65 -59 0 -5 14 -15
30 -23 17 -7 30 -16 30 -20 0 -5 5 -8 10 -8 21 0 8 19 -60 89 -38 39 -70 75
-70 80 0 5 -19 24 -42 42 -24 19 -55 46 -70 61 -14 16 -33 28 -42 28 -9 0 -16
5 -16 10 0 6 -16 10 -35 10 -28 0 -35 -4 -35 -20 0 -11 -6 -20 -14 -20 -8 0
-18 9 -21 20 -4 13 -15 20 -30 20 -13 0 -27 5 -31 11 -5 8 -9 8 -14 -1 -5 -8
-21 -9 -57 -2 -44 8 -53 6 -64 -10 -7 -10 -21 -18 -31 -18 -15 0 -11 8 17 46
19 25 35 54 35 64 0 10 6 21 13 23 14 6 -29 6 -60 0z"/>
<path d="M1350 1545 c0 -8 9 -15 20 -15 11 0 20 7 20 15 0 8 -9 15 -20 15 -11
0 -20 -7 -20 -15z"/>
<path d="M462 1443 c-19 -19 -14 -43 8 -43 11 0 20 5 20 10 0 6 20 10 45 10
25 0 45 -4 45 -10 0 -5 18 -10 40 -10 44 0 48 -4 24 -27 -13 -13 -37 -16 -127
-15 -63 1 -113 7 -115 12 -2 6 -17 10 -33 10 -16 0 -29 5 -29 10 0 6 20 10 45
10 38 0 45 3 45 20 0 15 -7 20 -29 20 -17 0 -33 -4 -36 -10 -3 -5 -13 -10 -21
-10 -8 0 -26 -11 -40 -25 -24 -24 -24 -26 -8 -43 13 -12 19 -13 22 -4 5 16 40
15 58 -2 20 -20 18 -23 -22 -42 -30 -15 -37 -15 -45 -3 -6 10 -9 2 -9 -24 0
-21 -3 -36 -7 -34 -5 3 -13 -1 -20 -8 -10 -10 -9 -16 3 -26 11 -9 18 -9 22 -2
22 34 48 63 57 63 6 0 17 9 25 20 8 12 26 20 42 20 15 0 28 5 28 11 0 6 6 9
14 6 7 -3 18 -1 22 3 11 11 54 2 54 -11 0 -5 13 -9 29 -9 16 0 32 -6 34 -12 3
-7 4 3 1 22 -4 32 -3 33 7 13 15 -29 40 -29 57 -3 7 12 17 18 22 15 11 -7 40
18 40 33 0 6 -9 8 -20 5 -15 -4 -20 0 -20 16 0 28 36 29 45 1 7 -22 50 -28 58
-7 4 9 8 9 15 -2 14 -19 32 -5 32 25 0 13 5 24 12 24 6 0 8 3 5 6 -4 4 -18 -1
-31 -10 -14 -9 -32 -16 -40 -16 -8 0 -16 -6 -18 -12 -6 -17 -38 14 -38 36 0 9
-8 16 -20 16 -13 0 -20 -7 -20 -20 0 -21 -24 -28 -35 -10 -3 6 -17 10 -31 10
-13 0 -24 5 -24 10 0 15 -124 9 -138 -7z"/>
<path d="M880 1448 c0 -12 98 -10 105 2 4 7 -13 10 -49 9 -31 -1 -56 -6 -56
-11z"/>
<path d="M751 1283 c-1 -10 -30 -13 -108 -13 -74 0 -103 -3 -93 -10 11 -7 2
-10 -32 -10 -27 0 -48 -4 -48 -10 0 -5 -25 -10 -55 -10 -30 0 -55 -4 -55 -10
0 -5 -9 -10 -20 -10 -23 0 -26 -13 -6 -29 10 -8 21 -8 40 -1 37 14 38 13 24
-9 -8 -13 -22 -19 -45 -18 -18 1 -33 4 -33 9 0 4 -15 5 -32 1 -30 -6 -32 -5
-19 10 7 9 10 17 7 17 -14 0 -46 -21 -46 -30 0 -5 -25 -35 -56 -66 -41 -41
-62 -54 -76 -51 -23 6 -48 -1 -48 -14 0 -16 88 -99 105 -99 9 0 15 -9 15 -25
0 -14 -4 -25 -10 -25 -5 0 -10 -7 -10 -15 0 -8 -4 -15 -10 -15 -5 0 -10 -7
-10 -15 0 -8 -4 -15 -10 -15 -5 0 -10 -9 -10 -20 0 -11 -4 -20 -10 -20 -5 0
-10 -8 -10 -18 0 -10 -5 -23 -11 -29 -9 -9 -8 -23 2 -57 7 -25 17 -46 21 -46
4 0 8 -13 8 -29 0 -21 6 -32 20 -36 11 -3 20 -13 20 -21 0 -8 5 -14 10 -14 6
0 10 -20 10 -45 0 -25 -4 -45 -10 -45 -5 0 -10 -9 -10 -21 0 -32 -25 -49 -70
-49 -34 0 -41 -3 -36 -16 3 -9 6 -18 6 -20 0 -2 7 -4 15 -4 17 0 56 -20 66
-33 5 -7 88 -12 114 -7 24 5 35 -1 35 -21 0 -11 -4 -17 -10 -14 -5 3 -10 1
-10 -4 0 -6 -6 -11 -13 -11 -7 0 -19 -9 -27 -20 -8 -11 -20 -20 -27 -20 -7 0
-13 -4 -13 -10 0 -5 -7 -10 -15 -10 -8 0 -15 -5 -15 -11 0 -5 -5 -7 -10 -4 -6
3 -10 -1 -10 -10 0 -9 12 -18 30 -22 17 -3 30 -9 30 -14 0 -5 7 -9 15 -9 8 0
15 -4 15 -10 0 -5 9 -10 20 -10 11 0 20 -4 20 -10 0 -5 9 -10 20 -10 11 0 20
-4 20 -10 0 -5 16 -10 36 -10 26 0 35 -4 31 -13 -4 -10 3 -12 25 -9 19 3 33
-1 39 -9 4 -7 11 -10 16 -6 4 5 1 12 -7 18 -13 8 -13 10 0 18 20 14 33 2 27
-25 -5 -27 20 -34 29 -9 7 18 30 20 38 3 3 -7 4 -4 1 8 -3 12 5 32 21 52 29
35 44 41 44 17 0 -8 -4 -15 -10 -15 -5 0 -10 -16 -10 -36 0 -21 -4 -33 -10
-29 -5 3 -10 1 -10 -4 0 -17 24 -13 41 7 9 10 19 31 23 45 7 31 36 37 36 7 0
-11 6 -20 13 -20 7 0 23 -11 35 -25 30 -35 76 -35 78 0 2 20 -3 25 -23 25 -33
0 -53 22 -53 60 0 17 -5 37 -12 44 -14 15 -48 9 -48 -8 0 -6 -6 -2 -12 8 -8
15 -7 21 6 28 25 14 20 38 -9 38 -14 0 -25 -5 -25 -11 0 -6 -7 -4 -15 5 -8 8
-15 19 -15 25 0 6 -4 11 -10 11 -5 0 -10 -11 -10 -24 0 -13 -6 -27 -12 -29
-10 -4 -9 -8 2 -16 9 -6 10 -11 3 -11 -6 0 -19 -7 -27 -16 -9 -8 -16 -11 -16
-5 0 6 -9 11 -20 11 -21 0 -28 16 -9 22 5 2 7 11 4 21 -8 20 -71 24 -78 5 -2
-8 -8 -9 -13 -4 -5 5 -4 11 4 13 6 3 12 18 12 34 0 26 -9 34 -32 30 -5 0 -8
10 -8 23 0 13 -5 26 -12 28 -17 6 -21 197 -3 214 11 11 14 7 20 -24 4 -20 14
-45 23 -55 14 -16 14 -20 2 -28 -11 -8 -12 -12 -2 -16 6 -2 12 -17 12 -31 0
-21 2 -24 10 -12 8 12 10 11 10 -7 0 -14 6 -23 16 -23 16 0 44 -23 44 -37 1
-4 9 -18 19 -31 21 -24 47 -29 54 -9 4 9 8 9 15 -1 5 -8 21 -12 38 -9 27 4 28
5 7 12 -13 4 -23 12 -23 17 0 5 -5 6 -10 3 -6 -3 -10 -1 -10 4 0 6 -8 11 -18
11 -11 0 -41 21 -67 46 -55 52 -50 64 21 56 36 -4 44 -2 44 12 0 12 -10 16
-45 16 -36 0 -45 3 -45 18 0 10 -9 24 -20 32 -11 8 -20 20 -20 26 0 7 -8 10
-20 7 -11 -3 -20 0 -20 6 0 6 5 11 10 11 6 0 10 20 10 45 0 50 3 53 28 28 12
-12 13 -18 5 -20 -8 -3 -3 -13 13 -30 14 -13 27 -37 30 -52 9 -45 88 -68 121
-36 19 20 9 32 -12 15 -13 -11 -21 -10 -43 1 -41 21 -51 34 -56 72 -4 35 -22
77 -37 87 -4 3 -1 13 6 23 13 18 14 17 20 -2 6 -21 35 -30 35 -11 0 6 7 10 16
10 18 0 44 23 44 39 0 7 10 9 25 5 14 -3 33 -3 42 1 10 4 32 9 48 10 52 3 55
5 55 20 0 12 -14 15 -75 13 -41 -2 -75 -7 -75 -11 0 -5 -7 -6 -15 -3 -9 3 -18
-1 -21 -9 -8 -19 -34 -7 -34 16 0 11 7 22 15 25 10 4 15 20 15 45 l0 40 45 -3
c25 -2 45 -6 45 -10 0 -14 28 -8 33 6 6 16 -3 20 -65 31 -22 3 -38 12 -38 19
0 18 25 27 37 15 6 -6 29 -11 51 -12 l42 -1 0 -43 c0 -36 3 -43 20 -43 14 0
20 -7 20 -23 0 -46 65 -87 140 -87 l50 0 -16 25 -16 25 -19 -21 -18 -21 -27
21 c-15 12 -32 21 -38 21 -15 0 -56 75 -56 101 0 10 -4 19 -10 19 -5 0 -10 16
-10 35 0 28 -4 35 -20 35 -11 0 -20 -4 -20 -10 0 -5 -11 -10 -24 -10 -14 0
-28 5 -31 10 -3 6 -17 10 -31 10 -20 0 -24 5 -24 30 0 22 5 30 18 30 13 0 21
13 30 45 7 25 17 45 23 45 5 0 7 -4 4 -10 -9 -15 4 -12 20 4 10 9 11 16 3 24
-8 8 -6 15 6 27 14 15 17 15 32 1 14 -14 13 -18 -5 -38 -16 -17 -21 -35 -21
-79 0 -32 5 -61 10 -64 6 -3 10 1 10 9 0 9 5 16 10 16 6 0 10 9 10 21 0 11 -4
17 -10 14 -6 -4 -10 7 -10 24 0 17 5 31 10 31 6 0 10 9 10 20 0 14 7 20 21 20
25 0 59 -35 59 -61 0 -18 15 -32 38 -35 8 -2 12 11 12 37 0 32 3 39 20 39 12
0 20 7 20 16 0 20 24 44 45 44 11 0 15 5 11 15 -3 10 1 15 12 15 10 0 24 9 32
20 8 11 23 20 33 20 10 0 15 5 12 10 -3 6 5 10 19 10 13 0 27 -6 29 -12 4 -10
6 -10 6 0 2 21 41 14 41 -8 0 -11 -5 -20 -10 -20 -12 0 -71 -40 -82 -55 -4 -5
-8 -6 -8 -1 0 5 -8 -1 -19 -12 -10 -12 -26 -22 -35 -22 -9 0 -16 -4 -16 -10 0
-5 -5 -10 -10 -10 -11 0 -60 -45 -60 -55 0 -10 66 -5 78 7 9 9 12 9 12 1 0
-16 37 -27 87 -26 24 1 46 -3 49 -8 3 -6 11 -5 20 2 10 8 14 8 14 0 0 -6 14
-11 30 -11 24 0 30 4 30 22 0 17 3 19 12 10 16 -16 28 -15 28 2 0 8 -7 17 -16
20 -11 4 -14 13 -11 27 4 15 0 23 -14 26 -25 7 -25 22 1 20 11 -1 20 -5 20 -9
0 -4 11 -8 25 -8 14 0 25 5 25 10 0 6 -9 10 -20 10 -11 0 -20 7 -20 15 0 8 9
19 20 25 15 8 20 8 20 -3 0 -14 40 -37 65 -37 8 0 15 -4 15 -10 0 -5 10 -10
21 -10 12 0 30 -9 40 -21 16 -19 20 -20 34 -6 8 9 15 21 15 27 0 17 -28 42
-39 35 -6 -3 -13 1 -18 9 -4 8 -27 24 -50 36 -24 12 -43 28 -43 36 0 8 -9 14
-19 14 -11 0 -22 6 -25 13 -5 10 -7 10 -12 0 -3 -7 -18 -13 -34 -13 -23 0 -27
3 -23 20 5 18 0 20 -56 20 -42 0 -61 -4 -61 -12 0 -9 -3 -9 -9 1 -8 12 -12 12
-25 2 -11 -9 -16 -10 -16 -2 0 16 -147 15 -154 -1 -5 -10 -7 -10 -12 0 -7 14
-84 17 -84 2 0 -14 -37 -12 -43 3 -4 10 -6 10 -6 0z m60 -58 c4 -3 10 1 12 7
4 10 8 9 16 -2 7 -10 14 -11 19 -5 8 13 72 15 72 3 0 -5 -7 -11 -15 -14 -14
-6 -13 -8 2 -20 11 -8 13 -13 6 -14 -7 0 -21 -8 -31 -17 -42 -40 -61 -45 -87
-25 -13 11 -21 23 -17 27 4 4 -4 4 -17 0 -15 -4 -21 -3 -17 3 3 5 0 10 -7 9
-33 -1 -48 4 -41 14 3 6 15 9 25 6 10 -3 23 1 28 7 8 10 3 11 -22 8 -17 -2
-38 -9 -44 -14 -10 -8 -13 -5 -13 10 0 11 6 22 13 25 14 5 106 -1 118 -8z
m-231 -16 c0 -11 -4 -17 -10 -14 -5 3 -10 -1 -10 -9 0 -9 -7 -16 -15 -16 -9 0
-18 -7 -21 -15 -4 -8 -10 -15 -15 -15 -13 0 -119 -107 -119 -120 0 -5 -5 -10
-11 -10 -7 0 -17 -7 -24 -16 -10 -15 -13 -15 -28 0 -9 9 -19 17 -22 16 -25 -1
-26 3 -5 24 14 13 31 21 38 18 7 -2 12 5 12 22 0 20 5 26 21 26 11 0 17 5 14
10 -3 6 0 10 7 10 7 0 26 16 43 35 16 19 35 35 42 35 7 0 18 9 25 20 18 29 78
28 78 -1z m80 2 c0 -11 -9 -22 -19 -26 -10 -3 -21 -15 -24 -26 -3 -12 -10 -18
-16 -14 -6 3 -22 -5 -35 -19 -13 -14 -26 -26 -30 -26 -4 0 -19 -14 -33 -30
-22 -27 -71 -60 -88 -60 -3 0 10 16 29 35 20 19 37 35 40 35 10 0 136 129 136
139 0 6 9 11 20 11 13 0 20 -7 20 -19z m580 6 c0 -7 -14 -23 -32 -37 -17 -14
-45 -37 -61 -52 -16 -16 -33 -28 -38 -28 -5 0 -19 -9 -31 -20 -21 -20 -49 -26
-61 -14 -8 9 18 34 35 34 8 0 20 9 28 20 8 11 20 20 27 20 7 0 13 5 13 10 0 6
7 10 16 10 15 0 44 23 44 35 0 3 6 12 13 20 15 18 47 19 47 2z m-960 -87 c0
-5 -4 -10 -10 -10 -5 0 -10 -9 -10 -20 0 -11 5 -20 10 -20 6 0 10 -9 10 -21 0
-11 -4 -17 -10 -14 -6 4 -10 -10 -10 -34 0 -34 3 -41 20 -41 11 0 20 -4 20
-10 0 -5 -4 -10 -10 -10 -5 0 -10 -24 -10 -53 0 -41 -4 -56 -20 -67 -11 -8
-20 -20 -20 -27 0 -30 -112 -105 -129 -87 -3 4 0 9 7 11 6 3 12 12 12 22 0 22
23 71 33 71 4 0 7 9 7 20 0 11 5 20 10 20 6 0 10 5 10 11 0 6 7 17 15 25 17
18 20 34 5 34 -6 0 -22 11 -35 24 -13 14 -34 27 -45 31 -25 8 -26 32 -2 39 21
7 112 93 112 106 0 6 9 10 20 10 11 0 20 -4 20 -10z m270 -85 c-7 -8 -21 -15
-31 -15 -18 0 -18 1 -2 19 9 11 20 18 25 15 4 -3 8 1 9 8 0 10 2 10 6 0 3 -7
-1 -19 -7 -27z m-136 -67 c5 -10 7 -10 12 0 8 17 102 16 120 -2 16 -17 19 -46
4 -46 -5 0 -10 -9 -10 -20 0 -11 5 -20 10 -20 6 0 10 -7 10 -15 0 -8 -4 -15
-10 -15 -5 0 -10 -9 -10 -20 0 -11 -4 -20 -10 -20 -5 0 -10 -8 -10 -18 0 -10
-7 -27 -15 -38 -19 -25 -19 -34 0 -34 8 0 15 -4 15 -10 0 -10 -13 -14 -43 -10
-10 1 -31 -12 -46 -29 -16 -17 -38 -31 -50 -31 -12 0 -21 -4 -21 -10 0 -16
-57 -12 -63 4 -4 11 -1 13 10 9 10 -4 22 3 34 18 18 24 18 24 33 4 13 -17 15
-17 16 -3 0 9 -5 18 -12 20 -7 3 -9 12 -5 22 6 15 15 17 42 13 40 -7 49 3 60
72 6 38 5 43 -9 38 -11 -5 -16 -1 -16 13 0 11 5 20 10 20 6 0 10 5 10 10 0 6
-9 10 -20 10 -16 0 -20 -7 -20 -33 0 -21 -7 -38 -20 -47 -11 -8 -20 -22 -20
-32 0 -10 -4 -18 -10 -18 -5 0 -10 -4 -10 -9 0 -15 -43 -58 -65 -64 -11 -4
-31 -1 -45 6 -14 7 -33 11 -42 9 -23 -5 -11 -32 14 -32 20 0 54 -27 45 -36 -2
-3 -16 1 -31 7 -14 7 -29 10 -32 7 -9 -9 25 -68 39 -68 8 0 7 4 -3 10 -26 17
-5 23 72 21 38 -1 46 -4 42 -16 -4 -8 -13 -15 -21 -15 -25 0 -43 -27 -43 -63
0 -20 6 -38 13 -41 9 -5 9 -7 -1 -12 -10 -5 -10 -9 -1 -20 8 -10 8 -14 0 -14
-6 0 -11 -9 -11 -20 0 -11 5 -20 10 -20 6 0 10 -9 10 -20 0 -11 -4 -20 -10
-20 -14 0 -12 -37 3 -44 6 -3 -1 -3 -18 1 -40 8 -42 10 -17 32 21 18 30 51 14
51 -4 0 -14 -9 -22 -20 -8 -11 -24 -20 -36 -20 -18 0 -21 -4 -16 -22 4 -19 2
-20 -19 -14 -13 4 -36 10 -52 13 -33 6 -46 23 -18 23 12 0 21 5 21 10 0 6 7
10 15 10 9 0 18 12 22 30 3 17 9 30 14 30 5 0 9 17 9 37 0 33 1 35 13 18 18
-24 25 -9 20 38 -3 22 -11 37 -19 37 -7 0 -19 10 -25 22 -17 32 -35 48 -53 48
-10 0 -16 9 -16 26 0 14 4 23 10 19 6 -3 10 -1 10 4 0 6 9 11 20 11 11 0 20 7
20 15 0 8 4 15 8 15 17 0 82 69 82 86 0 16 2 17 10 4 8 -12 10 -10 11 10 1 14
1 31 0 38 -1 6 3 12 9 12 5 0 10 7 10 15 0 8 -6 15 -12 15 -10 0 -9 3 1 9 9 6
11 18 7 35 -6 25 -5 26 34 26 22 0 40 5 40 10 0 14 17 12 24 -2z m36 -198 c0
-22 -4 -40 -10 -40 -5 0 -10 18 -10 40 0 22 5 40 10 40 6 0 10 -18 10 -40z
m-112 -529 c22 -18 22 -18 2 -36 -11 -10 -20 -24 -20 -32 0 -7 -4 -13 -10 -13
-16 0 -12 -27 5 -33 16 -7 20 -3 29 36 8 32 21 35 38 7 7 -11 23 -20 35 -20
37 0 104 -33 98 -48 -3 -8 -5 -20 -5 -28 0 -11 -18 -14 -81 -14 -83 0 -109 11
-109 44 0 12 -7 14 -30 10 -20 -4 -30 -2 -30 5 0 7 -4 10 -9 6 -5 -3 -21 0
-35 6 -20 10 -23 15 -15 26 6 7 17 13 23 13 6 0 18 9 26 20 8 11 20 20 28 20
23 0 42 26 29 39 -19 19 8 13 31 -8z"/>
<path d="M1720 1134 c0 -16 32 -34 60 -34 33 0 68 -24 50 -35 -5 -3 -10 -17
-10 -31 0 -13 -4 -24 -10 -24 -5 0 -10 -7 -10 -15 0 -16 9 -19 26 -7 10 6 34
94 34 122 0 6 -22 10 -50 10 -27 0 -50 5 -50 10 0 6 -9 10 -20 10 -11 0 -20
-3 -20 -6z"/>
<path d="M1650 990 c0 -11 3 -20 8 -20 4 0 20 -11 36 -25 23 -19 28 -32 28
-65 0 -22 -4 -44 -7 -50 -3 -5 2 -10 12 -10 16 0 18 6 15 35 -2 19 -1 35 3 35
10 0 35 -27 35 -39 0 -6 5 -11 10 -11 6 0 10 -9 10 -20 0 -11 -4 -20 -10 -20
-5 0 -10 5 -10 10 0 6 -4 10 -10 10 -5 0 -10 -9 -10 -20 0 -27 37 -27 45 0 4
11 10 18 15 15 5 -3 7 -12 3 -20 -4 -11 2 -15 20 -15 14 0 27 -6 30 -12 4 -10
7 -10 18 0 16 15 79 16 79 1 0 -15 -21 -34 -58 -53 -17 -9 -33 -16 -34 -16
-17 -1 -48 -14 -48 -21 0 -5 -9 -9 -19 -9 -11 0 -22 -6 -24 -12 -4 -10 -6 -10
-6 0 -1 6 -10 12 -21 12 -11 0 -20 5 -20 10 0 6 -9 10 -21 10 -15 0 -19 -4
-15 -16 3 -9 6 -18 6 -20 0 -2 7 -4 15 -4 8 0 15 -4 15 -9 0 -5 9 -13 20 -16
11 -3 20 -15 20 -25 0 -10 5 -22 10 -25 6 -3 10 -31 10 -61 0 -30 -4 -54 -10
-54 -5 0 -10 -10 -10 -23 0 -12 -9 -29 -20 -37 -16 -12 -20 -26 -20 -72 0 -32
-3 -58 -7 -58 -17 0 -31 16 -33 35 -4 32 -1 41 20 65 11 13 20 27 20 32 0 4
-9 8 -20 8 -13 0 -20 -7 -20 -20 0 -11 -4 -20 -9 -20 -12 0 -26 -39 -22 -65 3
-26 38 -56 56 -48 10 3 15 -2 15 -16 0 -12 5 -21 10 -21 6 0 10 -9 10 -20 0
-16 7 -20 30 -20 19 0 30 -5 30 -14 0 -19 44 -9 58 15 11 18 9 19 -28 19 -22
0 -40 5 -40 10 0 6 7 10 15 10 8 0 15 5 15 10 0 6 -18 10 -40 10 l-40 0 0 45
c0 25 5 45 10 45 6 0 10 14 10 30 0 17 4 30 8 30 15 0 44 83 44 120 -1 50 -13
94 -28 103 -22 13 -4 37 27 37 16 0 29 5 29 10 0 6 11 10 25 10 14 0 25 4 25
9 0 5 12 14 28 20 55 23 97 121 52 121 -11 0 -20 -4 -20 -10 0 -5 -23 -10 -51
-10 -28 0 -48 4 -44 9 3 5 -5 11 -17 13 -13 2 -27 13 -33 26 -5 12 -18 25 -27
28 -24 7 -23 26 2 44 19 14 28 50 13 50 -15 -1 -43 -27 -36 -33 3 -4 -2 -7
-11 -7 -10 0 -35 18 -56 40 -42 44 -60 50 -60 20z"/>
<path d="M1420 960 c0 -5 -7 -10 -15 -10 -8 0 -15 -4 -15 -10 0 -5 -9 -10 -20
-10 -23 0 -28 -34 -7 -44 10 -5 10 -7 0 -12 -19 -9 -17 -74 3 -74 8 0 12 5 9
10 -3 6 -1 10 4 10 8 0 7 7 -1 20 -7 10 -9 22 -5 26 10 10 50 -34 42 -46 -4
-6 1 -17 9 -26 9 -8 16 -31 16 -50 0 -19 5 -34 10 -34 6 0 10 -9 10 -20 0 -11
-4 -20 -10 -20 -5 0 -10 -9 -10 -19 0 -11 -4 -23 -10 -26 -5 -3 -10 -15 -10
-26 0 -11 -7 -22 -15 -25 -8 -4 -15 -12 -15 -20 0 -8 -4 -14 -9 -14 -5 0 -13
-9 -16 -20 -3 -11 -12 -20 -18 -20 -7 0 -19 -9 -27 -20 -11 -15 -26 -20 -57
-20 -24 0 -43 5 -43 10 0 6 7 10 15 10 8 0 15 9 15 20 0 11 5 20 10 20 6 0 10
8 10 18 0 10 9 24 20 32 14 10 20 26 20 50 0 26 -3 31 -10 20 -7 -11 -10 -5
-10 25 0 51 -39 135 -62 135 -10 0 -18 -5 -18 -11 0 -6 -7 -4 -15 5 -17 17
-20 46 -5 46 6 0 10 -4 10 -10 0 -5 5 -10 10 -10 25 0 7 38 -26 53 -31 15 -37
16 -50 2 -9 -8 -11 -15 -5 -15 6 0 11 -7 11 -15 0 -8 5 -15 10 -15 6 0 10 -7
10 -15 0 -10 -10 -15 -30 -15 -16 0 -30 -4 -30 -10 0 -5 9 -10 19 -10 11 0 23
-5 26 -11 4 -6 13 -8 21 -5 8 3 14 -1 14 -9 0 -18 17 -20 23 -2 3 8 12 4 30
-12 15 -13 24 -28 21 -32 -3 -5 0 -18 7 -30 8 -17 8 -23 -2 -30 -9 -5 -10 -11
-1 -21 17 -21 -14 -108 -39 -108 -12 0 -19 -7 -19 -20 0 -11 -4 -20 -10 -20
-5 0 -10 -13 -10 -28 l0 -28 58 7 c31 3 65 9 75 14 12 5 17 3 17 -10 0 -18
-23 -45 -39 -45 -5 0 -13 -9 -16 -20 -3 -11 -13 -20 -21 -20 -8 0 -14 -4 -14
-10 0 -5 -9 -10 -20 -10 -11 0 -20 -4 -20 -10 0 -5 -9 -10 -20 -10 -11 0 -20
-5 -20 -10 0 -6 -3 -9 -7 -9 -22 4 -43 -3 -58 -17 -12 -13 -19 -14 -28 -5 -16
16 -37 14 -37 -5 0 -22 32 -53 38 -36 2 6 9 12 15 12 7 0 23 9 37 20 31 24 40
25 40 4 0 -9 -5 -14 -12 -12 -18 6 -59 -38 -52 -56 3 -9 8 -16 11 -16 10 0 51
48 46 54 -4 3 2 6 12 6 26 0 66 45 52 59 -8 8 -6 11 6 11 9 0 17 -5 17 -10 0
-6 5 -9 11 -8 24 6 19 -22 -5 -28 -29 -7 -32 -14 -14 -32 9 -9 7 -12 -10 -12
-12 0 -22 -4 -22 -10 0 -5 -13 -10 -30 -10 -30 0 -41 -14 -17 -23 7 -3 0 -15
-20 -32 -37 -32 -43 -55 -13 -55 11 0 20 5 20 10 0 6 9 10 20 10 11 0 20 5 20
11 0 14 25 39 39 39 6 0 11 5 11 10 0 6 11 10 25 10 l24 0 -20 -35 c-17 -29
-18 -34 -5 -29 9 3 16 13 16 21 0 19 25 43 44 43 9 0 16 5 16 10 0 6 5 10 10
10 6 0 10 -9 10 -20 0 -11 -4 -20 -10 -20 -5 0 -10 -7 -10 -15 0 -8 -4 -15
-10 -15 -5 0 -10 -13 -10 -28 0 -16 -8 -34 -19 -42 -11 -7 -18 -17 -15 -21 2
-4 -3 -15 -12 -23 -14 -15 -13 -16 16 -16 24 0 31 4 26 15 -3 8 -1 15 4 15 6
0 10 -4 10 -10 0 -5 7 -7 15 -4 8 4 15 12 15 20 0 8 5 14 10 14 6 0 10 9 10
20 0 11 -4 20 -10 20 -5 0 -10 7 -10 15 0 8 5 15 10 15 6 0 10 -5 10 -11 0 -5
4 -7 10 -4 6 4 5 13 -2 25 -9 15 -9 24 2 44 13 25 40 36 40 16 0 -5 7 -10 15
-10 8 0 15 5 15 11 0 6 7 4 15 -5 8 -8 15 -19 15 -25 0 -5 9 -13 20 -16 11 -3
20 -13 20 -20 0 -8 10 -24 23 -37 12 -13 28 -35 36 -50 14 -27 47 -46 58 -34
4 3 -1 6 -10 6 -10 0 -17 8 -17 19 0 11 -6 21 -12 23 -9 3 -8 10 5 23 17 17
19 17 32 -1 8 -11 15 -23 15 -28 0 -18 44 -46 69 -45 16 1 20 3 9 6 -9 2 -20
13 -23 24 -4 10 -13 19 -21 19 -8 0 -14 6 -14 13 0 7 -9 23 -20 35 -11 12 -20
30 -20 42 0 12 -7 20 -16 20 -24 0 -74 56 -74 83 0 36 -11 39 -36 9 l-24 -27
0 26 c0 19 6 28 21 32 11 3 23 15 26 26 3 12 8 21 12 21 9 0 58 98 66 133 5
19 3 27 -6 27 -11 0 -11 3 1 10 13 9 13 11 0 21 -11 8 -12 12 -2 16 14 6 16
39 2 48 -5 3 -10 14 -10 24 0 22 -29 81 -39 81 -5 0 -4 22 1 50 6 35 5 56 -3
72 -8 15 -8 23 -2 25 14 5 -22 79 -52 109 -24 24 -75 33 -75 14z m53 -32 c42
-43 49 -71 46 -162 -3 -56 -8 -90 -17 -95 -13 -8 -6 -41 9 -41 5 0 9 -9 9 -20
0 -11 -4 -20 -10 -20 -5 0 -10 -5 -10 -11 0 -6 7 -9 16 -7 18 3 30 58 13 58
-5 0 -9 9 -9 21 0 11 5 19 12 17 36 -12 54 -199 24 -256 -9 -17 -16 -38 -16
-47 0 -8 -7 -15 -15 -15 -8 0 -15 -4 -15 -9 0 -5 -13 -23 -29 -40 -31 -33 -61
-41 -61 -16 0 8 -5 15 -10 15 -6 0 -18 16 -27 35 -9 19 -20 35 -25 35 -17 0
-7 29 11 35 11 3 23 14 26 24 3 9 15 28 26 40 12 12 18 25 15 28 -3 4 -14 -4
-25 -15 -16 -19 -51 -31 -51 -18 0 14 14 36 22 36 12 0 38 26 38 37 0 5 9 19
21 31 11 12 17 27 14 32 -3 6 1 7 9 4 14 -5 16 5 16 70 0 44 -4 76 -10 76 -5
0 -10 16 -10 35 0 19 -4 35 -10 35 -5 0 -10 9 -10 20 0 11 -4 20 -10 20 -5 0
-10 9 -10 20 0 11 -4 20 -10 20 -18 0 -10 22 10 27 11 3 20 9 20 14 0 14 9 11
33 -13z m-123 -657 c0 -5 9 -11 20 -14 11 -3 20 -12 20 -21 0 -13 -12 -16 -60
-16 -49 0 -60 3 -60 16 0 13 7 15 30 11 25 -6 30 -3 30 13 0 11 5 20 10 20 6
0 10 -4 10 -9z m194 -87 c4 -9 3 -20 0 -23 -4 -3 -9 0 -11 7 -3 6 -11 12 -19
12 -8 0 -14 5 -14 10 0 17 37 11 44 -6z m43 -60 c23 -24 24 -27 10 -42 -9 -9
-20 -12 -24 -8 -4 4 -1 11 7 16 13 8 12 10 -3 10 -11 0 -15 5 -11 11 4 8 -1 9
-16 4 -20 -6 -21 -5 -11 14 15 27 17 26 48 -5z"/>
<path d="M1460 551 c0 -11 -6 -22 -12 -24 -7 -3 -3 -6 10 -6 21 -1 33 -21 12
-21 -5 0 -10 -7 -10 -15 0 -8 -9 -20 -20 -27 -18 -12 -28 -38 -14 -38 11 0 84
82 84 95 0 7 3 20 6 29 4 10 1 16 -9 16 -8 0 -18 -6 -20 -12 -3 -8 -6 -6 -6 5
-1 23 -21 22 -21 -2z"/>
<path d="M890 859 c11 -8 12 -12 3 -16 -8 -3 -13 -22 -12 -46 0 -23 3 -36 6
-29 6 14 83 17 83 2 0 -5 7 -10 15 -10 9 0 30 -7 46 -16 23 -12 34 -13 44 -4
12 10 12 14 0 26 -7 8 -25 14 -39 14 -14 0 -26 5 -26 10 0 6 -12 10 -26 10
-26 0 -63 34 -64 58 0 6 -10 12 -22 12 -19 0 -20 -2 -8 -11z"/>
<path d="M1235 841 c-10 -9 -4 -21 10 -21 8 0 15 -6 15 -12 0 -9 4 -8 11 2 8
11 12 12 16 3 7 -20 23 -15 23 6 0 14 -9 20 -35 23 -20 2 -38 2 -40 -1z"/>
<path d="M1221 722 c-1 -7 -5 -10 -11 -7 -6 4 -10 -8 -10 -29 0 -20 -4 -36
-10 -36 -5 0 -10 -8 -10 -18 0 -9 -13 -28 -30 -42 -16 -14 -30 -30 -30 -36 0
-7 -13 -26 -29 -43 -24 -26 -36 -31 -75 -31 -25 0 -46 5 -46 10 0 6 -18 10
-41 10 -24 0 -38 4 -34 10 3 6 1 10 -4 10 -6 0 -11 -8 -11 -17 -1 -10 -18 -36
-40 -57 -32 -33 -41 -38 -53 -27 -25 20 -32 -8 -8 -30 11 -10 23 -19 27 -19 9
0 74 72 74 82 0 11 121 10 139 -1 23 -15 82 11 102 44 10 16 23 35 28 42 6 7
11 21 11 33 0 13 7 20 20 20 11 0 20 7 20 15 0 8 5 15 10 15 6 0 10 9 10 21 0
11 4 28 9 37 5 9 5 26 0 37 -4 11 -8 14 -8 7z"/>
<path d="M552 610 c-6 -11 -12 -26 -12 -34 0 -10 -7 -12 -22 -9 -21 5 -20 3 7
-21 l30 -26 3 30 c2 16 7 30 13 30 5 0 9 11 9 25 0 30 -11 32 -28 5z"/>
<path d="M637 593 c-4 -20 -4 -40 -1 -45 10 -16 24 -7 24 16 0 14 5 28 10 31
17 11 11 35 -9 35 -13 0 -20 -10 -24 -37z"/>
<path d="M691 467 c-5 -7 -7 -17 -3 -23 7 -11 46 -34 56 -34 14 0 4 23 -18 45
-19 19 -27 21 -35 12z"/>
<path d="M650 260 c-10 -19 -8 -20 49 -20 33 0 63 -4 66 -10 3 -5 35 -10 71
-10 36 0 64 -4 64 -10 0 -5 -14 -10 -31 -10 -17 0 -29 -5 -27 -11 2 -6 7 -10
11 -10 4 1 23 1 43 1 27 0 37 5 41 20 3 11 9 20 14 20 5 0 9 4 9 9 0 5 -42 9
-92 10 -51 1 -97 6 -102 11 -6 6 -25 10 -43 10 -18 0 -33 5 -33 10 0 18 -29
11 -40 -10z"/>
<path d="M974 225 c8 -21 -13 -63 -36 -70 -11 -4 -18 -16 -18 -31 0 -24 -69
-104 -101 -117 -8 -3 6 -6 31 -6 42 -1 46 2 59 32 17 36 35 57 50 57 6 0 11 8
11 18 0 10 9 24 20 32 11 8 20 20 20 27 0 7 9 13 20 13 23 0 27 25 6 46 -20
20 -70 19 -62 -1z"/>
<path d="M710 195 c0 -22 4 -24 23 -20 21 6 23 4 19 -29 -2 -20 -8 -36 -13
-36 -5 0 -9 -9 -9 -20 0 -11 5 -20 10 -20 6 0 10 9 10 20 0 11 5 20 10 20 6 0
10 9 10 19 0 17 5 19 34 14 44 -7 54 12 16 29 -16 7 -30 16 -30 20 0 5 -13 8
-30 8 -16 0 -30 5 -30 10 0 6 -4 10 -10 10 -5 0 -10 -11 -10 -25z"/>
<path d="M1056 184 c-3 -9 -6 -23 -6 -31 0 -14 3 -14 20 2 11 10 20 24 20 32
0 18 -27 16 -34 -3z"/>
<path d="M1670 146 c0 -9 15 -15 43 -18 55 -5 87 1 87 18 0 16 -13 17 -57 5
-20 -6 -35 -6 -38 0 -9 14 -35 11 -35 -5z"/>
<path d="M798 125 c-6 -7 7 -83 16 -93 4 -3 11 0 16 8 13 20 12 30 0 30 -5 0
-10 14 -10 30 0 28 -9 38 -22 25z"/>
<path d="M1070 74 c0 -24 -37 -53 -60 -47 -10 3 -29 -2 -42 -11 -22 -16 -22
-16 20 -16 23 0 42 5 42 10 0 6 11 8 25 4 15 -4 25 -2 25 5 0 6 9 11 20 11 11
0 20 5 20 10 0 6 14 10 30 10 24 0 30 4 30 22 0 17 -3 19 -12 10 -14 -14 -68
-16 -68 -2 0 6 -7 10 -15 10 -8 0 -15 -7 -15 -16z"/>
<path d="M1237 84 c-3 -3 -3 -12 0 -20 3 -8 0 -14 -6 -14 -6 0 -11 -9 -11 -19
0 -11 -6 -22 -12 -24 -7 -3 -3 -6 10 -6 13 -1 20 3 17 9 -3 5 1 23 10 39 13
26 8 50 -8 35z"/>
<path d="M634 34 c3 -9 6 -20 6 -25 0 -5 11 -9 25 -9 30 0 34 25 6 40 -29 15
-44 12 -37 -6z"/>
</g>
</svg>
